<?xml version="1.0" standalone="no"?>
<!DOCTYPE svg PUBLIC "-//W3C//DTD SVG 20010904//EN"
 "http://www.w3.org/TR/2001/REC-SVG-20010904/DTD/svg10.dtd">
<svg version="1.0" xmlns="http://www.w3.org/2000/svg"
 width="700.000000pt" height="700.000000pt" viewBox="0 0 700.000000 700.000000"
 preserveAspectRatio="xMidYMid meet">
<metadata>
Created by potrace 1.11, written by Peter Selinger 2001-2013
</metadata>
<g transform="translate(0.000000,700.000000) scale(0.100000,-0.100000)"
fill="#000000" stroke="none">
<path d="M3467 6884 c-1 -1 -67 -4 -147 -8 -80 -3 -154 -8 -165 -10 -11 -2
-51 -7 -90 -12 -38 -4 -72 -9 -75 -9 -3 -1 -27 -5 -55 -10 -232 -37 -544 -129
-769 -226 -107 -47 -281 -133 -284 -141 -2 -5 -8 -8 -12 -8 -29 0 -304 -181
-452 -297 -140 -109 -180 -145 -313 -279 -361 -362 -635 -797 -797 -1264 -35
-100 -96 -308 -103 -353 -3 -18 -9 -41 -12 -52 -3 -11 -7 -29 -9 -40 -2 -11
-5 -29 -7 -40 -3 -11 -8 -40 -12 -65 -4 -25 -9 -52 -10 -60 -2 -8 -6 -42 -9
-75 -4 -33 -9 -67 -11 -75 -20 -79 -21 -529 -1 -693 2 -18 8 -63 12 -102 4
-38 8 -72 9 -75 1 -3 5 -25 9 -50 130 -768 520 -1467 1106 -1981 408 -358 878
-605 1400 -737 63 -16 144 -35 180 -41 36 -7 85 -16 110 -21 93 -18 272 -34
475 -43 l60 -2 3 188 c2 146 0 187 -10 188 -7 0 -47 2 -88 4 -76 2 -232 15
-260 20 -9 2 -43 7 -75 11 -33 4 -62 8 -65 9 -3 1 -25 5 -50 9 -560 99 -1124
396 -1550 817 -129 128 -177 183 -286 326 -324 427 -537 959 -589 1468 -3 33
-8 80 -11 105 -6 54 -6 409 1 465 2 22 7 65 10 95 93 896 629 1733 1421 2222
156 97 499 258 601 283 10 3 71 21 136 40 65 19 128 37 140 39 12 2 33 7 47
10 14 3 36 8 50 10 14 2 52 9 85 15 189 33 293 40 540 36 218 -4 244 -6 380
-25 485 -68 975 -272 1366 -569 136 -104 195 -155 330 -290 374 -375 636 -829
773 -1341 29 -108 61 -269 71 -350 4 -30 8 -66 10 -80 22 -154 22 -509 0 -660
-8 -57 -15 -108 -21 -150 -3 -25 -17 -96 -30 -159 -84 -390 -253 -772 -475
-1078 l-62 -85 39 -34 c21 -18 42 -33 46 -34 4 0 13 -6 20 -12 18 -18 195
-151 201 -152 22 -4 282 407 349 554 9 19 30 66 48 105 37 78 112 272 128 325
5 19 22 76 36 125 23 77 60 231 72 300 8 46 24 154 29 200 4 28 8 61 11 75 6
36 17 263 17 350 1 187 -26 477 -58 640 -3 14 -7 36 -10 50 -27 142 -116 433
-182 595 -47 116 -155 337 -198 404 -14 23 -25 43 -25 46 0 3 -34 57 -76 120
-213 324 -461 593 -773 835 -527 410 -1204 663 -1861 696 -182 9 -230 10 -233
8z"/>
<path d="M1460 5117 c0 -3 42 -40 93 -83 50 -43 94 -81 97 -84 3 -3 133 -116
290 -250 156 -135 309 -267 340 -294 69 -62 91 -80 220 -191 58 -49 110 -94
116 -100 6 -5 35 -30 64 -55 29 -25 58 -49 64 -55 6 -5 43 -37 81 -70 39 -33
72 -62 75 -65 3 -3 19 -17 36 -33 l31 -28 84 97 c46 54 88 102 94 108 36 39
75 88 75 95 0 4 -82 77 -182 162 -99 85 -186 159 -192 164 -6 6 -42 37 -81 70
-38 32 -75 64 -81 69 -6 6 -35 31 -65 56 -29 25 -65 55 -79 67 l-25 21 1050 0
c1144 -1 1123 0 1251 -58 191 -86 324 -247 375 -451 17 -71 19 -112 19 -387
-1 -172 -6 -327 -11 -352 -6 -25 -12 -52 -14 -61 -2 -9 -14 -41 -26 -70 -97
-227 -316 -388 -554 -405 l-70 -5 -166 138 c-92 76 -188 156 -215 178 -26 22
-64 54 -83 71 -20 16 -58 47 -84 69 -46 37 -48 37 -61 19 -8 -10 -62 -79 -120
-152 -58 -74 -106 -137 -106 -140 0 -4 51 -45 112 -92 l110 -85 -1060 -3
-1060 -2 1 -428 2 -427 193 -1 192 0 0 233 0 233 1109 0 1109 0 284 -232 283
-233 308 -1 c169 0 307 2 307 5 -1 4 -62 56 -136 116 -74 61 -143 117 -152
125 -9 8 -64 54 -122 101 -136 110 -144 117 -196 161 l-44 37 67 32 c88 42
134 71 208 133 200 167 323 379 369 636 22 125 17 764 -7 865 -93 399 -384
703 -766 801 -34 8 -71 18 -83 22 -24 7 -3268 15 -3268 9z"/>
</g>
</svg>
